<svg width="106" height="106" viewBox="0 0 106 106" fill="none" xmlns="http://www.w3.org/2000/svg">
<circle cx="53" cy="53" r="53" fill="#F26F64"/>
<path fill-rule="evenodd" clip-rule="evenodd" d="M31.4701 8.89829C28.5958 12.3611 39.0627 21.0073 49.026 23.4015C50.6565 23.7934 56.6419 24.108 62.3269 24.1016C73.4523 24.0892 77.813 24.6381 80.4837 26.388C82.2537 27.5475 84.0179 30.9551 84.0179 33.2143C84.0179 35.1686 81.4245 42.3809 79.9822 44.4396C78.7136 46.2498 75.0971 48.5395 74.4807 47.9231C74.2977 47.7402 74.4703 45.1903 74.8654 42.257C76.2247 32.1548 75.7394 30.6994 70.2419 28.4026C64.1319 25.8495 54.6876 28.7711 45.0325 36.2002C38.8738 40.9392 35.5052 46.0721 34.8732 51.6805C34.5137 54.8643 35.4195 56.8477 39.1366 61.0203C42.1284 64.3786 45.5191 65.4349 49.8052 64.3429C54.2555 63.2088 56.7671 60.4811 56.7671 56.7822C56.7671 53.1981 53.4036 50.7922 48.3324 50.7494C45.2875 50.7241 44.7405 49.8495 46.2471 47.4158C48.2247 44.2197 50.8745 41.904 54.1718 40.4896C58.7026 38.5463 60.8327 38.3471 63.001 39.6662L64.9112 40.8276L64.3642 48.5493C64.0632 52.7965 63.9619 62.2096 64.1391 69.4687L64.4615 82.6654L62.9783 82.2936C58.7253 81.2257 50.2795 81.164 44.4395 82.158C38.5332 83.1631 34.3652 83.4791 29.5678 83.2864C26.8103 83.1754 22.2795 78.7498 21.0708 74.9872C19.631 70.5055 17.194 69.0106 14.964 71.24C13.4159 72.7887 13.7358 76.2966 15.899 81.493C21.1908 94.2054 30.5222 96.8066 48.4077 90.5558C52.943 88.9707 56.3811 88.1804 58.9271 88.1376C62.4917 88.0779 62.8155 88.2038 64.5699 90.3397C65.5937 91.5855 66.9284 93.7 67.537 95.0379C68.6276 97.4372 68.6945 97.471 72.3577 97.471C76.4564 97.471 77.2862 96.9026 77.9363 93.6526C78.2322 92.1726 77.8721 90.4267 76.6769 87.5504C75.3955 84.4659 74.7662 81.1628 73.9941 73.4644C72.6413 59.977 72.5199 60.9431 75.7452 59.53C77.2622 58.8656 80.4279 56.4007 82.7806 54.0526C88.5058 48.3371 89.5277 45.4278 89.5309 34.8344C89.5329 27.0524 89.5245 27.0089 87.262 23.273C84.9314 19.4235 80.461 15.7817 77.9052 15.65C77.1629 15.6117 69.695 15.5338 61.3089 15.4767C44.2714 15.3606 44.0424 15.3126 38.1322 10.6216C34.5488 7.77777 32.7801 7.3197 31.4701 8.89829Z" fill="#111827"/>
<path fill-rule="evenodd" clip-rule="evenodd" d="M34.8396 9.99571C32.0372 13.3719 42.2423 21.802 51.9566 24.1363C53.5463 24.5184 59.382 24.8252 64.9249 24.8189C75.7721 24.8068 80.0238 25.342 82.6277 27.0481C84.3535 28.1786 86.0735 31.501 86.0735 33.7038C86.0735 35.6092 83.545 42.6412 82.1387 44.6484C80.9019 46.4134 77.3758 48.6458 76.7748 48.0449C76.5964 47.8665 76.7647 45.3803 77.1499 42.5203C78.4752 32.6707 78.002 31.2518 72.642 29.0124C66.6848 26.5231 57.4766 29.3717 48.0629 36.615C42.0583 41.2355 38.7738 46.24 38.1576 51.7083C37.8072 54.8124 38.6903 56.7463 42.3145 60.8146C45.2314 64.0889 48.5374 65.1188 52.7163 64.0541C57.0553 62.9483 59.5041 60.2889 59.5041 56.6824C59.5041 53.1879 56.2247 50.8422 51.2803 50.8005C48.3115 50.7758 47.7782 49.9231 49.2471 47.5502C51.1753 44.434 53.7588 42.1762 56.9737 40.7971C61.3912 38.9025 63.468 38.7083 65.5822 39.9944L67.4445 41.1267L66.9113 48.6553C66.6177 52.7963 66.5191 61.9741 66.6918 69.0517L67.0062 81.9185L65.56 81.556C61.4133 80.5148 53.1788 80.4547 47.4847 81.4238C41.7261 82.4037 37.6623 82.7118 32.9848 82.5239C30.2963 82.4157 25.8788 78.1008 24.7003 74.4323C23.2965 70.0626 20.9205 68.6051 18.7462 70.7787C17.2369 72.2887 17.5487 75.7089 19.6578 80.7754C24.8173 93.17 33.9154 95.7061 51.3537 89.6116C55.7756 88.0661 59.1277 87.2956 61.6101 87.2539C65.0856 87.1957 65.4012 87.3184 67.1118 89.4009C68.11 90.6155 69.4113 92.6772 70.0047 93.9816C71.0681 96.321 71.1332 96.3539 74.7049 96.3539C78.7011 96.3539 79.5102 95.7997 80.144 92.631C80.4325 91.188 80.0814 89.4857 78.9161 86.6814C77.6668 83.674 77.0531 80.4534 76.3003 72.9476C74.9814 59.7974 74.8631 60.7393 78.0077 59.3615C79.4867 58.7137 82.5733 56.3104 84.8672 54.0211C90.4492 48.4485 91.4456 45.6119 91.4487 35.2834C91.4506 27.6959 91.4424 27.6535 89.2365 24.011C86.9642 20.2578 82.6056 16.707 80.1137 16.5786C79.39 16.5412 72.1087 16.4653 63.9323 16.4097C47.3209 16.2964 47.0976 16.2496 41.3352 11.6759C37.8413 8.9032 36.1169 8.45658 34.8396 9.99571Z" fill="#2E5A8C"/>
<path fill-rule="evenodd" clip-rule="evenodd" d="M38.1841 11.0803C35.453 14.3706 45.3983 22.5861 54.8653 24.8609C56.4145 25.2333 62.1017 25.5323 67.5035 25.5261C78.0746 25.5144 82.218 26.036 84.7557 27.6987C86.4375 28.8004 88.1137 32.0382 88.1137 34.1849C88.1137 36.0418 85.6496 42.8948 84.2791 44.8509C83.0737 46.5709 79.6374 48.7466 79.0517 48.1609C78.8778 47.987 79.0418 45.5642 79.4173 42.777C80.7088 33.1781 80.2477 31.7953 75.0241 29.6129C69.2186 27.187 60.2448 29.9631 51.0707 37.022C45.2189 41.5249 42.0181 46.402 41.4176 51.731C41.076 54.7562 41.9367 56.6408 45.4686 60.6055C48.3113 63.7965 51.5331 64.8002 55.6057 63.7626C59.8342 62.685 62.2207 60.0932 62.2207 56.5786C62.2207 53.173 59.0248 50.887 54.2062 50.8464C51.313 50.8223 50.7933 49.9913 52.2248 47.6788C54.1039 44.6419 56.6217 42.4416 59.7547 41.0977C64.0597 39.2512 66.0837 39.062 68.144 40.3153L69.959 41.4189L69.4393 48.7558C69.1532 52.7914 69.057 61.7356 69.2253 68.633L69.5317 81.1722L68.1224 80.819C64.0813 79.8042 56.0563 79.7456 50.5072 80.6901C44.8952 81.6451 40.9349 81.9453 36.3765 81.7622C33.7564 81.6568 29.4514 77.4517 28.3028 73.8766C26.9348 69.6181 24.6192 68.1977 22.5003 70.316C21.0294 71.7876 21.3333 75.1207 23.3887 80.0582C28.4169 92.1373 37.2833 94.6088 54.2777 88.6695C58.587 87.1634 61.8539 86.4125 64.273 86.3718C67.66 86.3151 67.9677 86.4347 69.6347 88.4642C70.6075 89.6478 71.8757 91.657 72.4539 92.9282C73.4903 95.208 73.5538 95.2401 77.0345 95.2401C80.9289 95.2401 81.7174 94.7 82.3352 91.612C82.6163 90.2058 82.2741 88.5468 81.1385 85.8138C79.921 82.883 79.323 79.7444 78.5893 72.4297C77.3039 59.6142 77.1886 60.5322 80.2533 59.1894C81.6946 58.5581 84.7026 56.2161 86.9381 53.9849C92.378 48.5542 93.349 45.7898 93.3521 35.7243C93.354 28.33 93.3459 28.2887 91.1962 24.7389C88.9818 21.0812 84.7341 17.6208 82.3056 17.4956C81.6003 17.4593 74.5044 17.3853 66.5362 17.331C50.3476 17.2207 50.1299 17.1751 44.5143 12.7178C41.1093 10.0157 39.4288 9.5804 38.1841 11.0803Z" fill="#F4F7F8"/>
</svg>
