<svg width="919" height="278" viewBox="0 0 919 278" fill="none" xmlns="http://www.w3.org/2000/svg">
<path d="M796.375 81.4531V92H749.688V83L771.766 59.3281C773.984 56.8594 775.734 54.6875 777.016 52.8125C778.297 50.9062 779.219 49.2031 779.781 47.7031C780.375 46.1719 780.672 44.7188 780.672 43.3438C780.672 41.2812 780.328 39.5156 779.641 38.0469C778.953 36.5469 777.938 35.3906 776.594 34.5781C775.281 33.7656 773.656 33.3594 771.719 33.3594C769.656 33.3594 767.875 33.8594 766.375 34.8594C764.906 35.8594 763.781 37.25 763 39.0312C762.25 40.8125 761.875 42.8281 761.875 45.0781H748.328C748.328 41.0156 749.297 37.2969 751.234 33.9219C753.172 30.5156 755.906 27.8125 759.438 25.8125C762.969 23.7813 767.156 22.7656 772 22.7656C776.781 22.7656 780.812 23.5469 784.094 25.1094C787.406 26.6406 789.906 28.8594 791.594 31.7656C793.312 34.6406 794.172 38.0781 794.172 42.0781C794.172 44.3281 793.812 46.5312 793.094 48.6875C792.375 50.8125 791.344 52.9375 790 55.0625C788.688 57.1562 787.094 59.2812 785.219 61.4375C783.344 63.5938 781.266 65.8281 778.984 68.1406L767.125 81.4531H796.375ZM806.031 85.4844C806.031 83.4844 806.719 81.8125 808.094 80.4688C809.5 79.125 811.359 78.4531 813.672 78.4531C815.984 78.4531 817.828 79.125 819.203 80.4688C820.609 81.8125 821.312 83.4844 821.312 85.4844C821.312 87.4844 820.609 89.1562 819.203 90.5C817.828 91.8438 815.984 92.5156 813.672 92.5156C811.359 92.5156 809.5 91.8438 808.094 90.5C806.719 89.1562 806.031 87.4844 806.031 85.4844ZM878.594 51.875V63.6875C878.594 68.8125 878.047 73.2344 876.953 76.9531C875.859 80.6406 874.281 83.6719 872.219 86.0469C870.188 88.3906 867.766 90.125 864.953 91.25C862.141 92.375 859.016 92.9375 855.578 92.9375C852.828 92.9375 850.266 92.5938 847.891 91.9062C845.516 91.1875 843.375 90.0781 841.469 88.5781C839.594 87.0781 837.969 85.1875 836.594 82.9062C835.25 80.5938 834.219 77.8438 833.5 74.6562C832.781 71.4688 832.422 67.8125 832.422 63.6875V51.875C832.422 46.75 832.969 42.3594 834.062 38.7031C835.188 35.0156 836.766 32 838.797 29.6562C840.859 27.3125 843.297 25.5937 846.109 24.5C848.922 23.375 852.047 22.8125 855.484 22.8125C858.234 22.8125 860.781 23.1719 863.125 23.8906C865.5 24.5781 867.641 25.6563 869.547 27.125C871.453 28.5937 873.078 30.4844 874.422 32.7969C875.766 35.0781 876.797 37.8125 877.516 41C878.234 44.1562 878.594 47.7812 878.594 51.875ZM865.047 65.4688V50.0469C865.047 47.5781 864.906 45.4219 864.625 43.5781C864.375 41.7344 863.984 40.1719 863.453 38.8906C862.922 37.5781 862.266 36.5156 861.484 35.7031C860.703 34.8906 859.812 34.2969 858.812 33.9219C857.812 33.5469 856.703 33.3594 855.484 33.3594C853.953 33.3594 852.594 33.6562 851.406 34.25C850.25 34.8438 849.266 35.7969 848.453 37.1094C847.641 38.3906 847.016 40.1094 846.578 42.2656C846.172 44.3906 845.969 46.9844 845.969 50.0469V65.4688C845.969 67.9375 846.094 70.1094 846.344 71.9844C846.625 73.8594 847.031 75.4688 847.562 76.8125C848.125 78.125 848.781 79.2031 849.531 80.0469C850.312 80.8594 851.203 81.4531 852.203 81.8281C853.234 82.2031 854.359 82.3906 855.578 82.3906C857.078 82.3906 858.406 82.0938 859.562 81.5C860.75 80.875 861.75 79.9062 862.562 78.5938C863.406 77.25 864.031 75.5 864.438 73.3438C864.844 71.1875 865.047 68.5625 865.047 65.4688Z" fill="#011C43"/>
<path d="M792.375 80.4531V91H745.688V82L767.766 58.3281C769.984 55.8594 771.734 53.6875 773.016 51.8125C774.297 49.9062 775.219 48.2031 775.781 46.7031C776.375 45.1719 776.672 43.7188 776.672 42.3438C776.672 40.2812 776.328 38.5156 775.641 37.0469C774.953 35.5469 773.938 34.3906 772.594 33.5781C771.281 32.7656 769.656 32.3594 767.719 32.3594C765.656 32.3594 763.875 32.8594 762.375 33.8594C760.906 34.8594 759.781 36.25 759 38.0312C758.25 39.8125 757.875 41.8281 757.875 44.0781H744.328C744.328 40.0156 745.297 36.2969 747.234 32.9219C749.172 29.5156 751.906 26.8125 755.438 24.8125C758.969 22.7813 763.156 21.7656 768 21.7656C772.781 21.7656 776.812 22.5469 780.094 24.1094C783.406 25.6406 785.906 27.8594 787.594 30.7656C789.312 33.6406 790.172 37.0781 790.172 41.0781C790.172 43.3281 789.812 45.5312 789.094 47.6875C788.375 49.8125 787.344 51.9375 786 54.0625C784.688 56.1562 783.094 58.2812 781.219 60.4375C779.344 62.5938 777.266 64.8281 774.984 67.1406L763.125 80.4531H792.375ZM802.031 84.4844C802.031 82.4844 802.719 80.8125 804.094 79.4688C805.5 78.125 807.359 77.4531 809.672 77.4531C811.984 77.4531 813.828 78.125 815.203 79.4688C816.609 80.8125 817.312 82.4844 817.312 84.4844C817.312 86.4844 816.609 88.1562 815.203 89.5C813.828 90.8438 811.984 91.5156 809.672 91.5156C807.359 91.5156 805.5 90.8438 804.094 89.5C802.719 88.1562 802.031 86.4844 802.031 84.4844ZM874.594 50.875V62.6875C874.594 67.8125 874.047 72.2344 872.953 75.9531C871.859 79.6406 870.281 82.6719 868.219 85.0469C866.188 87.3906 863.766 89.125 860.953 90.25C858.141 91.375 855.016 91.9375 851.578 91.9375C848.828 91.9375 846.266 91.5938 843.891 90.9062C841.516 90.1875 839.375 89.0781 837.469 87.5781C835.594 86.0781 833.969 84.1875 832.594 81.9062C831.25 79.5938 830.219 76.8438 829.5 73.6562C828.781 70.4688 828.422 66.8125 828.422 62.6875V50.875C828.422 45.75 828.969 41.3594 830.062 37.7031C831.188 34.0156 832.766 31 834.797 28.6562C836.859 26.3125 839.297 24.5937 842.109 23.5C844.922 22.375 848.047 21.8125 851.484 21.8125C854.234 21.8125 856.781 22.1719 859.125 22.8906C861.5 23.5781 863.641 24.6563 865.547 26.125C867.453 27.5937 869.078 29.4844 870.422 31.7969C871.766 34.0781 872.797 36.8125 873.516 40C874.234 43.1562 874.594 46.7812 874.594 50.875ZM861.047 64.4688V49.0469C861.047 46.5781 860.906 44.4219 860.625 42.5781C860.375 40.7344 859.984 39.1719 859.453 37.8906C858.922 36.5781 858.266 35.5156 857.484 34.7031C856.703 33.8906 855.812 33.2969 854.812 32.9219C853.812 32.5469 852.703 32.3594 851.484 32.3594C849.953 32.3594 848.594 32.6562 847.406 33.25C846.25 33.8438 845.266 34.7969 844.453 36.1094C843.641 37.3906 843.016 39.1094 842.578 41.2656C842.172 43.3906 841.969 45.9844 841.969 49.0469V64.4688C841.969 66.9375 842.094 69.1094 842.344 70.9844C842.625 72.8594 843.031 74.4688 843.562 75.8125C844.125 77.125 844.781 78.2031 845.531 79.0469C846.312 79.8594 847.203 80.4531 848.203 80.8281C849.234 81.2031 850.359 81.3906 851.578 81.3906C853.078 81.3906 854.406 81.0938 855.562 80.5C856.75 79.875 857.75 78.9062 858.562 77.5938C859.406 76.25 860.031 74.5 860.438 72.3438C860.844 70.1875 861.047 67.5625 861.047 64.4688Z" fill="#2E5A8C"/>
<path d="M788.375 78.4531V89H741.688V80L763.766 56.3281C765.984 53.8594 767.734 51.6875 769.016 49.8125C770.297 47.9062 771.219 46.2031 771.781 44.7031C772.375 43.1719 772.672 41.7188 772.672 40.3438C772.672 38.2812 772.328 36.5156 771.641 35.0469C770.953 33.5469 769.938 32.3906 768.594 31.5781C767.281 30.7656 765.656 30.3594 763.719 30.3594C761.656 30.3594 759.875 30.8594 758.375 31.8594C756.906 32.8594 755.781 34.25 755 36.0312C754.25 37.8125 753.875 39.8281 753.875 42.0781H740.328C740.328 38.0156 741.297 34.2969 743.234 30.9219C745.172 27.5156 747.906 24.8125 751.438 22.8125C754.969 20.7813 759.156 19.7656 764 19.7656C768.781 19.7656 772.812 20.5469 776.094 22.1094C779.406 23.6406 781.906 25.8594 783.594 28.7656C785.312 31.6406 786.172 35.0781 786.172 39.0781C786.172 41.3281 785.812 43.5312 785.094 45.6875C784.375 47.8125 783.344 49.9375 782 52.0625C780.688 54.1562 779.094 56.2812 777.219 58.4375C775.344 60.5938 773.266 62.8281 770.984 65.1406L759.125 78.4531H788.375ZM870.594 48.875V60.6875C870.594 65.8125 870.047 70.2344 868.953 73.9531C867.859 77.6406 866.281 80.6719 864.219 83.0469C862.188 85.3906 859.766 87.125 856.953 88.25C854.141 89.375 851.016 89.9375 847.578 89.9375C844.828 89.9375 842.266 89.5938 839.891 88.9062C837.516 88.1875 835.375 87.0781 833.469 85.5781C831.594 84.0781 829.969 82.1875 828.594 79.9062C827.25 77.5938 826.219 74.8438 825.5 71.6562C824.781 68.4688 824.422 64.8125 824.422 60.6875V48.875C824.422 43.75 824.969 39.3594 826.062 35.7031C827.188 32.0156 828.766 29 830.797 26.6562C832.859 24.3125 835.297 22.5937 838.109 21.5C840.922 20.375 844.047 19.8125 847.484 19.8125C850.234 19.8125 852.781 20.1719 855.125 20.8906C857.5 21.5781 859.641 22.6563 861.547 24.125C863.453 25.5937 865.078 27.4844 866.422 29.7969C867.766 32.0781 868.797 34.8125 869.516 38C870.234 41.1562 870.594 44.7812 870.594 48.875ZM857.047 62.4688V47.0469C857.047 44.5781 856.906 42.4219 856.625 40.5781C856.375 38.7344 855.984 37.1719 855.453 35.8906C854.922 34.5781 854.266 33.5156 853.484 32.7031C852.703 31.8906 851.812 31.2969 850.812 30.9219C849.812 30.5469 848.703 30.3594 847.484 30.3594C845.953 30.3594 844.594 30.6562 843.406 31.25C842.25 31.8438 841.266 32.7969 840.453 34.1094C839.641 35.3906 839.016 37.1094 838.578 39.2656C838.172 41.3906 837.969 43.9844 837.969 47.0469V62.4688C837.969 64.9375 838.094 67.1094 838.344 68.9844C838.625 70.8594 839.031 72.4688 839.562 73.8125C840.125 75.125 840.781 76.2031 841.531 77.0469C842.312 77.8594 843.203 78.4531 844.203 78.8281C845.234 79.2031 846.359 79.3906 847.578 79.3906C849.078 79.3906 850.406 79.0938 851.562 78.5C852.75 77.875 853.75 76.9062 854.562 75.5938C855.406 74.25 856.031 72.5 856.438 70.3438C856.844 68.1875 857.047 65.5625 857.047 62.4688Z" fill="#F4F7F8"/>
<path d="M798.031 82.4844C798.031 80.4844 798.719 78.8125 800.094 77.4688C801.5 76.125 803.359 75.4531 805.672 75.4531C807.984 75.4531 809.828 76.125 811.203 77.4688C812.609 78.8125 813.312 80.4844 813.312 82.4844C813.312 84.4844 812.609 86.1562 811.203 87.5C809.828 88.8438 807.984 89.5156 805.672 89.5156C803.359 89.5156 801.5 88.8438 800.094 87.5C798.719 86.1562 798.031 84.4844 798.031 82.4844Z" fill="#F26F64"/>
<path fill-rule="evenodd" clip-rule="evenodd" d="M472.826 66.2254C472.732 69.5783 472.799 80.5465 472.974 90.6033L473.294 108.887H458.145H442.993V118.263V127.639H457.995H472.996L473.008 182.489C473.013 215.371 473.814 240.209 475.007 244.505C477.24 252.549 487.852 265.264 495.733 269.34C502.629 272.905 523.777 272.802 532.493 269.16C536.274 267.581 542.166 264.153 545.59 261.541C552.022 256.636 564.882 239.07 564.882 235.191C564.882 233.413 539.034 217.65 536.12 217.65C535.676 217.65 534.734 222.503 534.031 228.432C531.948 245.994 529.529 252.713 523.447 257.83C515.478 264.536 509.468 264.125 504.855 256.561C501.35 250.813 501.138 246.969 501.132 189.053L501.125 127.639H550.818C589.226 127.639 600.553 128.172 600.693 129.983C601.695 142.905 599.788 166.537 597.541 169.042C593.869 173.136 594.059 182.02 597.821 182.02C599.433 182.02 604.708 180.35 609.541 178.308C630.234 169.563 664.033 165.747 674.238 171.004C682.573 175.296 686.772 180.667 686.772 187.035C686.772 190.465 686.509 193.272 686.187 193.272C685.864 193.272 682.279 191.7 678.217 189.778C654.97 178.782 618.111 185.996 596.817 205.71C577.049 224.012 575.466 238.875 591.441 256.206C602.833 268.566 615.202 272.579 638.954 271.624C657.252 270.889 660.766 269.955 684.428 259.535C685.718 258.968 686.772 259.724 686.772 261.215C686.772 263.99 691.511 266.711 704.324 271.296L711.564 273.886L710.649 226.548C710.109 198.566 708.843 176.355 707.557 172.234C704.855 163.58 697.552 154.715 689.84 150.727C681.639 146.485 653.627 145.439 636.765 148.745L623.324 151.379L622.701 141.36C622.358 135.849 622.358 130.506 622.701 129.49C623.104 128.297 668.912 127.639 751.623 127.639H879.92V118.263V108.887H690.595H501.271L500.729 92.7036L500.187 76.5204L488.936 68.4513C482.748 64.0126 476.631 60.326 475.34 60.2566C473.953 60.1816 472.927 62.6175 472.826 66.2254ZM797.41 147.216C785.765 149.686 777.113 153.811 767.136 161.65C763.378 164.603 759.791 167.019 759.167 167.019C758.542 167.019 758.03 163.221 758.03 158.58V150.142H744.904H731.777V207.167V264.193L743.497 270.683C749.944 274.253 755.849 276.811 756.624 276.367C757.398 275.924 758.03 262.67 758.03 246.914C758.03 222.983 758.674 216.29 761.938 206.239C774.33 168.095 804.845 148.553 831.235 161.862C842.954 167.771 847.158 176.687 846.929 195.147C846.674 215.724 841.369 227.918 825.319 244.814C818.219 252.287 812.44 259.148 812.474 260.06C812.545 261.957 834.074 275.913 838.864 277.166C842.809 278.197 855.238 262.259 861.927 247.593C886.224 194.314 848.93 136.291 797.41 147.216ZM664.547 209.084C686.682 215.803 690.547 221.175 679.894 230.429C661.094 246.761 640.441 253.962 615.183 252.99C600.296 252.418 597.894 251.837 594.837 248.06C589.86 241.911 592.909 234.834 605.488 223.337C621.739 208.485 644.486 202.995 664.547 209.084Z" fill="#111827"/>
<path fill-rule="evenodd" clip-rule="evenodd" d="M245.234 124.269C237.839 127.851 237.051 133.302 237.051 180.981V226.585L248.771 230.832C265.502 236.895 290.283 249.607 314.764 264.684C326.404 271.853 336.464 277.718 337.12 277.718C337.777 277.718 338.313 248.606 338.313 213.023V148.328H363.554C388.674 148.328 388.815 148.352 393.589 153.485C399.659 160.013 405.821 176.271 405.821 185.759C405.821 200.532 390.341 210.555 373.393 206.754C369.054 205.783 367.062 204.896 368.965 204.785C375.366 204.414 383.408 198.194 384.948 192.424C388.13 180.497 379.069 168.903 366.657 169.017C358.369 169.094 352.702 173.555 348.687 183.164C346.14 189.26 346 191.916 347.82 199.505C349.602 206.929 351.37 209.477 357.62 213.608C364.345 218.054 367.068 218.649 380.686 218.649C394.857 218.649 396.792 218.18 404.231 212.95C414.98 205.395 422.4 190.864 423.921 174.395C425.46 157.708 421.492 145.913 410.946 135.839C395.492 121.075 401.954 122.06 321.487 122.202C275.827 122.281 247.766 123.042 245.234 124.269ZM312.06 193.333C312.06 218.086 311.676 238.339 311.205 238.339C310.348 238.339 300.417 231.414 278.897 215.808C272.519 211.182 266.835 205.71 266.265 203.647C265.697 201.584 265.219 188.295 265.206 174.112L265.179 148.328H288.62H312.06V193.333Z" fill="#111827"/>
<path fill-rule="evenodd" clip-rule="evenodd" d="M50.4919 21.5962C42.1847 31.6043 72.4358 56.5935 101.232 63.5131C105.944 64.6458 123.243 65.5552 139.674 65.5365C171.828 65.5009 184.432 67.0873 192.15 72.1448C197.266 75.4958 202.365 85.3445 202.365 91.874C202.365 97.5222 194.869 118.367 190.701 124.317C187.034 129.549 176.582 136.167 174.8 134.385C174.272 133.857 174.77 126.487 175.912 118.009C179.841 88.8118 178.438 84.6056 162.55 77.9673C144.891 70.5883 117.595 79.0325 89.6897 100.504C71.8901 114.2 62.1539 129.035 60.3274 145.245C59.2886 154.446 61.9064 160.179 72.6495 172.239C81.2962 181.945 91.0961 184.998 103.484 181.842C116.346 178.564 123.605 170.68 123.605 159.99C123.605 149.631 113.884 142.678 99.2271 142.554C90.4267 142.481 88.8458 139.953 93.2001 132.919C98.9158 123.682 106.574 116.989 116.104 112.901C129.199 107.285 135.355 106.709 141.622 110.521L147.143 113.878L145.562 136.195C144.692 148.47 144.399 175.676 144.911 196.656L145.843 234.797L141.557 233.722C129.264 230.636 104.855 230.458 87.9757 233.331C70.9056 236.235 58.8591 237.149 44.9937 236.592C37.024 236.271 23.9294 223.48 20.4358 212.606C16.2747 199.652 9.23131 195.332 2.78617 201.775C-1.68811 206.251 -0.763626 216.39 5.48837 231.408C20.7827 268.15 47.7522 275.667 99.4446 257.602C112.552 253.02 122.489 250.736 129.848 250.613C140.15 250.44 141.086 250.804 146.156 256.977C149.116 260.578 152.973 266.689 154.732 270.556C157.884 277.49 158.077 277.588 168.665 277.588C180.511 277.588 182.909 275.945 184.788 266.552C185.643 262.275 184.602 257.228 181.148 248.916C177.445 240.001 175.626 230.454 173.394 208.204C169.484 169.223 169.134 172.015 178.455 167.931C182.84 166.011 191.989 158.887 198.789 152.101C215.336 135.582 218.289 127.173 218.299 96.5564C218.304 74.065 218.28 73.9394 211.741 63.1418C205.005 52.0161 192.085 41.4905 184.698 41.1098C182.553 40.9992 160.969 40.7742 136.732 40.6091C87.4901 40.2735 86.8281 40.1347 69.7467 26.5768C59.3898 18.3577 54.278 17.0338 50.4919 21.5962Z" fill="#111827"/>
<path fill-rule="evenodd" clip-rule="evenodd" d="M472.004 68.279C471.912 71.5481 471.978 82.242 472.148 92.0474L472.461 109.874H457.69H442.917V119.015V128.157H457.544H472.17L472.181 181.636C472.187 213.696 472.967 237.912 474.13 242.101C476.308 249.945 486.654 262.341 494.339 266.316C501.062 269.791 521.682 269.691 530.18 266.14C533.866 264.601 539.61 261.258 542.949 258.711C549.22 253.929 561.759 236.802 561.759 233.02C561.759 231.286 536.557 215.917 533.716 215.917C533.283 215.917 532.365 220.649 531.679 226.43C529.648 243.553 527.289 250.104 521.36 255.093C513.589 261.631 507.73 261.231 503.232 253.855C499.815 248.252 499.608 244.503 499.603 188.035L499.595 128.157H548.046C585.494 128.157 596.538 128.676 596.675 130.443C597.651 143.042 595.792 166.082 593.601 168.525C590.021 172.516 590.206 181.179 593.874 181.179C595.446 181.179 600.589 179.55 605.301 177.559C625.477 169.033 658.431 165.313 668.38 170.437C676.507 174.622 680.601 179.859 680.601 186.068C680.601 189.412 680.345 192.149 680.03 192.149C679.716 192.149 676.22 190.617 672.26 188.743C649.594 178.021 613.656 185.055 592.896 204.276C573.621 222.121 572.078 236.612 587.654 253.51C598.761 265.56 610.821 269.473 633.978 268.542C651.819 267.826 655.246 266.915 678.316 256.755C679.573 256.203 680.601 256.94 680.601 258.393C680.601 261.099 685.221 263.752 697.714 268.222L704.773 270.747L703.881 224.593C703.355 197.31 702.121 175.656 700.866 171.637C698.232 163.199 691.112 154.556 683.592 150.668C675.597 146.532 648.285 145.512 631.845 148.735L618.739 151.304L618.132 141.535C617.798 136.162 617.798 130.953 618.132 129.962C618.525 128.799 663.188 128.157 743.83 128.157H868.92V119.015V109.874H684.329H499.738L499.21 94.0952L498.681 78.3166L487.711 70.4492C481.678 66.1216 475.714 62.5271 474.456 62.4594C473.103 62.3863 472.103 64.7613 472.004 68.279ZM788.473 147.245C777.119 149.653 768.683 153.675 758.956 161.318C755.292 164.197 751.795 166.552 751.186 166.552C750.577 166.552 750.078 162.85 750.078 158.325V150.097H737.279H724.481V205.697V261.297L735.908 267.625C742.194 271.106 747.951 273.6 748.707 273.166C749.462 272.735 750.078 259.812 750.078 244.45C750.078 221.117 750.705 214.592 753.888 204.792C765.97 167.602 795.722 148.549 821.453 161.524C832.878 167.285 836.977 175.979 836.754 193.977C836.505 214.04 831.333 225.929 815.684 242.403C808.762 249.689 803.127 256.378 803.16 257.267C803.229 259.117 824.221 272.724 828.89 273.945C832.737 274.951 844.855 259.412 851.377 245.112C875.067 193.166 838.705 136.593 788.473 147.245ZM658.932 207.566C680.513 214.116 684.281 219.355 673.895 228.377C655.566 244.3 635.428 251.321 610.802 250.374C596.287 249.817 593.945 249.25 590.965 245.568C586.112 239.572 589.085 232.672 601.35 221.463C617.194 206.982 639.372 201.629 658.932 207.566Z" fill="#2E5A8C"/>
<path fill-rule="evenodd" clip-rule="evenodd" d="M250.103 124.871C242.892 128.363 242.124 133.678 242.124 180.166V224.629L253.551 228.77C269.864 234.681 294.025 247.076 317.894 261.776C329.243 268.765 339.052 274.484 339.692 274.484C340.332 274.484 340.854 246.099 340.854 211.407V148.329H365.464C389.956 148.329 390.093 148.353 394.748 153.357C400.667 159.721 406.675 175.573 406.675 184.824C406.675 199.228 391.582 209.001 375.057 205.294C370.826 204.347 368.885 203.483 370.74 203.375C376.981 203.013 384.822 196.948 386.323 191.322C389.426 179.694 380.592 168.389 368.49 168.501C360.409 168.576 354.883 172.926 350.969 182.294C348.486 188.238 348.349 190.827 350.124 198.226C351.861 205.465 353.585 207.949 359.679 211.977C366.235 216.312 368.89 216.892 382.168 216.892C395.984 216.892 397.871 216.435 405.124 211.335C415.604 203.969 422.839 189.801 424.322 173.745C425.823 157.474 421.954 145.974 411.671 136.152C396.604 121.758 402.905 122.718 324.449 122.857C279.931 122.933 252.571 123.676 250.103 124.871ZM315.258 192.209C315.258 216.343 314.883 236.089 314.424 236.089C313.588 236.089 303.906 229.337 282.924 214.122C276.705 209.611 271.164 204.276 270.608 202.265C270.054 200.254 269.588 187.296 269.575 173.469L269.549 148.329H292.403H315.258V192.209Z" fill="#2E5A8C"/>
<path fill-rule="evenodd" clip-rule="evenodd" d="M60.2295 24.7657C52.1299 34.5235 81.6247 58.888 109.701 65.6346C114.295 66.7389 131.162 67.6256 147.182 67.6073C178.532 67.5726 190.82 69.1194 198.346 74.0504C203.334 77.3176 208.305 86.9201 208.305 93.2864C208.305 98.7933 200.997 119.117 196.933 124.918C193.358 130.02 183.167 136.472 181.43 134.735C180.914 134.219 181.401 127.034 182.514 118.768C186.345 90.3007 184.977 86.1997 169.486 79.7274C152.268 72.5329 125.655 80.7659 98.4473 101.7C81.0927 115.055 71.5999 129.519 69.8191 145.323C68.8062 154.294 71.3586 159.884 81.8331 171.642C90.2636 181.105 99.8185 184.082 111.897 181.005C124.437 177.809 131.515 170.122 131.515 159.699C131.515 149.599 122.036 142.82 107.746 142.699C99.1658 142.628 97.6245 140.163 101.87 133.305C107.443 124.299 114.91 117.773 124.201 113.788C136.969 108.312 142.971 107.75 149.081 111.467L154.464 114.74L152.923 136.499C152.074 148.467 151.789 174.993 152.288 195.448L153.197 232.636L149.017 231.588C137.033 228.579 113.233 228.405 96.7761 231.206C80.1328 234.038 68.3875 234.929 54.8688 234.386C47.0984 234.073 34.3311 221.602 30.9249 210.999C26.8678 198.37 20.0005 194.158 13.7165 200.44C9.3541 204.804 10.2555 214.689 16.3511 229.332C31.2631 265.155 57.5583 272.485 107.958 254.87C120.738 250.404 130.427 248.177 137.601 248.056C147.646 247.888 148.558 248.243 153.502 254.262C156.387 257.772 160.148 263.73 161.863 267.501C164.937 274.262 165.125 274.357 175.448 274.357C186.997 274.357 189.336 272.755 191.168 263.597C192.002 259.427 190.987 254.507 187.619 246.402C184.008 237.71 182.235 228.402 180.059 206.708C176.247 168.702 175.905 171.424 184.993 167.442C189.268 165.57 198.189 158.624 204.819 152.007C220.952 135.901 223.831 127.703 223.841 97.8517C223.846 75.9226 223.822 75.8001 217.447 65.2726C210.879 54.425 198.282 44.1626 191.08 43.7914C188.988 43.6835 167.944 43.4641 144.313 43.3032C96.3026 42.976 95.6572 42.8407 79.0029 29.6218C68.905 21.6082 63.9209 20.3173 60.2295 24.7657Z" fill="#2E5A8C"/>
<path fill-rule="evenodd" clip-rule="evenodd" d="M471.188 70.3176C471.099 73.5034 471.163 83.9252 471.329 93.4809L471.634 110.853H457.239H442.842V119.762V128.671H457.096H471.35L471.361 180.789C471.366 212.033 472.127 235.633 473.26 239.715C475.383 247.359 485.466 259.439 492.955 263.313C499.506 266.7 519.601 266.602 527.883 263.142C531.475 261.641 537.074 258.384 540.327 255.902C546.439 251.241 558.658 234.551 558.658 230.864C558.658 229.175 534.098 214.198 531.329 214.198C530.907 214.198 530.012 218.809 529.344 224.443C527.365 241.129 525.066 247.514 519.288 252.376C511.715 258.748 506.005 258.358 501.621 251.17C498.291 245.709 498.09 242.056 498.084 187.025L498.077 128.671H545.295C581.79 128.671 592.552 129.177 592.685 130.899C593.637 143.177 591.825 165.631 589.69 168.012C586.201 171.901 586.381 180.343 589.956 180.343C591.488 180.343 596.5 178.756 601.092 176.815C620.754 168.507 652.869 164.881 662.566 169.875C670.486 173.954 674.475 179.057 674.475 185.108C674.475 188.367 674.226 191.034 673.919 191.034C673.613 191.034 670.206 189.541 666.347 187.715C644.258 177.266 609.235 184.121 589.002 202.853C570.219 220.243 568.715 234.366 583.894 250.833C594.718 262.577 606.471 266.39 629.039 265.483C646.426 264.785 649.765 263.897 672.248 253.996C673.474 253.458 674.475 254.176 674.475 255.592C674.475 258.229 678.978 260.815 691.153 265.171L698.032 267.632L697.163 222.652C696.65 196.064 695.447 174.961 694.225 171.044C691.657 162.821 684.719 154.399 677.39 150.609C669.598 146.578 642.982 145.584 626.96 148.725L614.188 151.229L613.596 141.709C613.27 136.472 613.27 131.396 613.596 130.43C613.98 129.297 657.505 128.671 736.095 128.671H858V119.762V110.853H678.108H498.216L497.701 95.4765L497.186 80.0996L486.496 72.4326C480.616 68.2151 474.804 64.7121 473.578 64.6461C472.259 64.5749 471.284 66.8894 471.188 70.3176ZM779.601 147.273C768.536 149.62 760.315 153.54 750.836 160.988C747.265 163.794 743.856 166.089 743.263 166.089C742.67 166.089 742.183 162.481 742.183 158.071V150.053H729.711H717.238V204.237V258.422L728.374 264.589C734.5 267.981 740.111 270.411 740.847 269.989C741.583 269.569 742.183 256.975 742.183 242.004C742.183 219.265 742.794 212.906 745.897 203.355C757.671 167.112 786.666 148.544 811.741 161.189C822.875 166.804 826.87 175.276 826.653 192.816C826.411 212.368 821.37 223.955 806.119 240.009C799.374 247.109 793.882 253.629 793.914 254.495C793.982 256.298 814.439 269.558 818.989 270.748C822.738 271.728 834.548 256.585 840.904 242.649C863.99 192.025 828.554 136.893 779.601 147.273ZM653.357 206.058C674.39 212.442 678.062 217.547 667.939 226.34C650.077 241.858 630.452 248.7 606.453 247.777C592.308 247.234 590.025 246.681 587.121 243.093C582.392 237.25 585.289 230.526 597.241 219.602C612.682 205.49 634.296 200.273 653.357 206.058Z" fill="#F4F7F8"/>
<path fill-rule="evenodd" clip-rule="evenodd" d="M254.936 125.469C247.909 128.873 247.16 134.052 247.16 179.356V222.688L258.297 226.723C274.194 232.484 297.74 244.563 321.002 258.888C332.061 265.7 341.62 271.274 342.244 271.274C342.868 271.274 343.377 243.611 343.377 209.802V148.33H367.36C391.229 148.33 391.363 148.353 395.899 153.23C401.667 159.432 407.522 174.88 407.522 183.896C407.522 197.933 392.813 207.457 376.709 203.845C372.586 202.922 370.694 202.079 372.503 201.974C378.584 201.621 386.226 195.711 387.689 190.229C390.713 178.896 382.103 167.88 370.309 167.988C362.434 168.061 357.049 172.3 353.234 181.43C350.815 187.223 350.681 189.746 352.411 196.957C354.104 204.011 355.784 206.432 361.723 210.358C368.112 214.582 370.699 215.147 383.639 215.147C397.104 215.147 398.943 214.702 406.011 209.732C416.224 202.553 423.275 188.746 424.72 173.098C426.183 157.242 422.412 146.035 412.392 136.463C397.708 122.435 403.848 123.37 327.389 123.506C284.004 123.581 257.342 124.304 254.936 125.469ZM318.432 191.093C318.432 214.613 318.067 233.856 317.62 233.856C316.805 233.856 307.369 227.276 286.921 212.448C280.861 208.052 275.461 202.853 274.919 200.893C274.379 198.933 273.925 186.305 273.912 172.829L273.887 148.33H296.16H318.432V191.093Z" fill="#F26F64"/>
<path fill-rule="evenodd" clip-rule="evenodd" d="M69.8962 27.9119C62.0028 37.4214 90.7467 61.1656 118.108 67.7404C122.586 68.8166 139.023 69.6808 154.635 69.663C185.187 69.6291 197.163 71.1365 204.497 75.942C209.358 79.1261 214.202 88.4841 214.202 94.6883C214.202 100.055 207.081 119.862 203.12 125.515C199.636 130.486 189.704 136.774 188.011 135.082C187.509 134.579 187.983 127.577 189.068 119.521C192.801 91.7786 191.468 87.7821 176.371 81.4745C159.592 74.4631 133.656 82.4866 107.141 102.888C90.2282 115.902 80.9772 129.998 79.2417 145.4C78.2546 154.143 80.742 159.59 90.9499 171.049C99.1657 180.271 108.477 183.172 120.248 180.173C132.469 177.059 139.367 169.568 139.367 159.41C139.367 149.568 130.13 142.961 116.203 142.843C107.841 142.774 106.339 140.372 110.477 133.688C115.907 124.911 123.184 118.552 132.239 114.668C144.682 109.331 150.531 108.784 156.486 112.406L161.732 115.596L160.23 136.801C159.403 148.465 159.125 174.315 159.611 194.25L160.497 230.491L156.424 229.47C144.744 226.537 121.55 226.367 105.512 229.097C89.2928 231.857 77.8465 232.725 64.672 232.196C57.0993 231.891 44.6571 219.737 41.3376 209.405C37.3837 197.097 30.6913 192.992 24.5673 199.114C20.3159 203.367 21.1943 213 27.1348 227.271C41.6672 262.182 67.293 269.325 116.41 252.159C128.865 247.806 138.306 245.636 145.298 245.518C155.087 245.354 155.976 245.7 160.794 251.566C163.606 254.987 167.271 260.794 168.943 264.468C171.938 271.057 172.121 271.149 182.181 271.149C193.437 271.149 195.716 269.588 197.501 260.663C198.314 256.599 197.325 251.804 194.043 243.906C190.524 235.435 188.795 226.364 186.675 205.223C182.96 168.184 182.627 170.837 191.484 166.956C195.65 165.132 204.344 158.363 210.804 151.914C226.527 136.218 229.333 128.229 229.342 99.1375C229.348 77.7666 229.324 77.6472 223.111 67.3876C216.711 56.8162 204.435 46.815 197.416 46.4533C195.377 46.3482 174.869 46.1344 151.839 45.9776C105.051 45.6586 104.422 45.5268 88.1917 32.6444C78.3508 24.8348 73.4936 23.5768 69.8962 27.9119Z" fill="#F4F7F8"/>
</svg>
